<?xml version="1.0" encoding="UTF-8" standalone="no"?>
<svg
   xmlns:dc="http://purl.org/dc/elements/1.1/"
   xmlns:cc="http://creativecommons.org/ns#"
   xmlns:rdf="http://www.w3.org/1999/02/22-rdf-syntax-ns#"
   xmlns:svg="http://www.w3.org/2000/svg"
   xmlns="http://www.w3.org/2000/svg"
   xmlns:sodipodi="http://sodipodi.sourceforge.net/DTD/sodipodi-0.dtd"
   xmlns:inkscape="http://www.inkscape.org/namespaces/inkscape"
   width="210mm"
   height="297mm"
   viewBox="0 0 210 297"
   version="1.1"
   id="svg8"
   inkscape:version="1.0.1 (3bc2e813f5, 2020-09-07)"
   sodipodi:docname="dibujo.svg">
  <defs
     id="defs2" />
  <sodipodi:namedview
     id="base"
     pagecolor="#ffffff"
     bordercolor="#666666"
     borderopacity="1.0"
     inkscape:pageopacity="0.0"
     inkscape:pageshadow="2"
     inkscape:zoom="0.2604753"
     inkscape:cx="552.36283"
     inkscape:cy="-31.84391"
     inkscape:document-units="mm"
     inkscape:current-layer="layer1"
     inkscape:document-rotation="0"
     showgrid="false"
     inkscape:window-width="1920"
     inkscape:window-height="1017"
     inkscape:window-x="-8"
     inkscape:window-y="61"
     inkscape:window-maximized="1" />
  <metadata
     id="metadata5">
    <rdf:RDF>
      <cc:Work
         rdf:about="">
        <dc:format>image/svg+xml</dc:format>
        <dc:type
           rdf:resource="http://purl.org/dc/dcmitype/StillImage" />
        <dc:title />
      </cc:Work>
    </rdf:RDF>
  </metadata>
  <g
     inkscape:label="Capa 1"
     inkscape:groupmode="layer"
     id="layer1">
    <g
       id="g401"
       transform="matrix(0.26458333,0,0,0.26458333,-75.292988,32.808335)"
       inkscape:export-xdpi="9.375"
       inkscape:export-ydpi="9.375">
      <g
         id="g308">
        <g
           id="g306">
          <path
             d="m 315.793,19.932 h -59.796 v 37.372 h 41.109 v 70.384 c 0,61.82 -50.297,112.117 -112.117,112.117 -61.82,0 -112.116,-50.296 -112.116,-112.116 V 57.304 h 39.864 V 19.932 h -58.55 c -10.321,0 -18.686,8.365 -18.686,18.686 v 89.071 c 0,82.431 67.058,149.489 149.489,149.489 82.431,0 149.489,-67.058 149.489,-149.489 V 38.618 c 0,-10.321 -8.365,-18.686 -18.686,-18.686 z"
             id="path304" />
        </g>
      </g>
      <g
         id="g314">
        <g
           id="g312">
          <path
             d="m 388.668,292.749 v 88.448 c 0,51.518 -41.913,93.431 -93.431,93.431 -51.518,0 -93.431,-41.913 -93.431,-93.431 V 259.114 h -37.372 v 122.083 c 0,72.122 58.674,130.803 130.803,130.803 72.122,0 130.803,-58.681 130.803,-130.803 v -88.448 z"
             id="path310" />
        </g>
      </g>
      <g
         id="g320">
        <g
           id="g318">
          <path
             d="m 407.361,171.912 c -38.132,0 -69.145,31.013 -69.145,69.139 0,38.12 31.013,69.139 69.139,69.139 38.126,0 69.139,-31.019 69.145,-69.139 -10e-4,-38.126 -31.019,-69.139 -69.139,-69.139 z m -0.006,100.906 c -17.521,0 -31.773,-14.251 -31.773,-31.766 0,-17.515 14.251,-31.766 31.773,-31.766 17.515,0 31.766,14.251 31.766,31.766 0,17.515 -14.251,31.766 -31.766,31.766 z"
             id="path316" />
        </g>
      </g>
      <g
         id="g326">
        <g
           id="g324">
          <path
             d="M 112.114,0 C 101.793,0 93.428,8.365 93.428,18.686 V 58.55 c 0,10.321 8.365,18.686 18.686,18.686 10.321,0 18.686,-8.365 18.686,-18.686 V 18.686 C 130.8,8.365 122.435,0 112.114,0 Z"
             id="path322" />
        </g>
      </g>
      <g
         id="g332">
        <g
           id="g330">
          <path
             d="M 256.62,0 C 246.299,0 237.934,8.365 237.934,18.686 V 58.55 c 0,10.321 8.365,18.686 18.686,18.686 10.321,0 18.686,-8.365 18.686,-18.686 V 18.686 C 275.306,8.365 266.941,0 256.62,0 Z"
             id="path328" />
        </g>
      </g>
      <g
         id="g334" />
      <g
         id="g336" />
      <g
         id="g338" />
      <g
         id="g340" />
      <g
         id="g342" />
      <g
         id="g344" />
      <g
         id="g346" />
      <g
         id="g348" />
      <g
         id="g350" />
      <g
         id="g352" />
      <g
         id="g354" />
      <g
         id="g356" />
      <g
         id="g358" />
      <g
         id="g360" />
      <g
         id="g362" />
    </g>
    <g
       id="g420"
       transform="matrix(2.1166667,0,0,2.1166667,-240.84643,26.004761)"
       inkscape:export-xdpi="9.6774197"
       inkscape:export-ydpi="9.6774197">
      <path
         d="M 33,11 V 5.998 C 34.214,5.084 35,3.632 35,2 35,1.448 34.553,1 34,1 H 22 c -0.553,0 -1,0.448 -1,1 v 9 c 0,3.309 2.691,6 6,6 3.309,0 6,-2.691 6,-6 z M 23,3 h 9.829 C 32.416,4.164 31.304,5 30,5 h -4 c -0.553,0 -1,0.448 -1,1 v 2 c 0,1.304 -0.836,2.416 -2,2.829 z m 8,8 c 0,2.206 -1.794,4 -4,4 -1.562,0 -2.917,-0.899 -3.575,-2.207 C 25.49,12.178 27,10.262 27,8 V 7 h 3 c 0.343,0 0.677,-0.035 1,-0.101 z"
         id="path416" />
      <path
         d="M 62,57 H 61 V 42 c 0,-4.411 -3.589,-8 -8,-8 H 41.414 L 33,25.586 V 22 c 0,-2.757 -2.243,-5 -5,-5 h -1 -5 c -0.553,0 -1,0.448 -1,1 V 34 H 11 C 6.589,34 3,37.589 3,42 V 57 H 2 c -0.553,0 -1,0.448 -1,1 v 4 c 0,0.552 0.447,1 1,1 h 8 c 0.553,0 1,-0.448 1,-1 v -4 c 0,-0.552 -0.447,-1 -1,-1 H 9 V 43 c 0,-1.654 1.346,-3 3,-3 h 9 v 22 c 0,0.552 0.447,1 1,1 h 8 c 0.553,0 1,-0.448 1,-1 v -2 c 0,-1.302 -0.839,-2.402 -2,-2.816 V 44 h 4 v 5 4 c 0,0.552 0.447,1 1,1 h 8 c 0.553,0 1,-0.448 1,-1 v -2 c 0,-1.302 -0.839,-2.402 -2,-2.816 V 41 c 0,-0.338 -0.045,-0.672 -0.112,-1 H 52 c 1.654,0 3,1.346 3,3 v 14 h -1 c -0.553,0 -1,0.448 -1,1 v 4 c 0,0.552 0.447,1 1,1 h 8 c 0.553,0 1,-0.448 1,-1 v -4 c 0,-0.552 -0.447,-1 -1,-1 z M 38,33.414 39.586,35 38,36.586 36.414,35 Z m -3,0.172 -8.672,-8.672 C 26.116,24.702 26,24.421 26,24.121 26,23.503 26.503,23 27.121,23 c 0.295,0 0.584,0.12 0.793,0.328 L 36.586,32 Z M 23,19 h 5 c 1.654,0 3,1.346 3,3 v 1.586 L 29.328,21.914 C 28.747,21.333 27.943,21 27.121,21 25.4,21 24,22.4 24,24.121 c 0,0.834 0.324,1.618 0.914,2.207 L 32.586,34 H 23 Z M 9,61 H 3 V 59 H 9 Z M 7,43 V 57 H 5 V 42 c 0,-3.309 2.691,-6 6,-6 h 23.586 l 2,2 H 12 C 9.243,38 7,40.243 7,43 Z M 27,40 V 57 H 23 V 40 Z m 2,21 h -6 v -2 h 5 c 0.552,0 1,0.449 1,1 z m 12,-9 h -6 v -2 h 5 c 0.552,0 1,0.449 1,1 z M 39,41 v 7 h -4 v -5 c 0,-0.552 -0.447,-1 -1,-1 h -5 v -2 h 9.806 C 38.92,40.321 39,40.654 39,41 Z M 52,38 H 39.414 l 2,-2 H 53 c 3.309,0 6,2.691 6,6 V 57 H 57 V 43 c 0,-2.757 -2.243,-5 -5,-5 z m 9,23 h -6 v -2 h 6 z"
         id="path418" />
    </g>
    <g
       id="g603"
       transform="matrix(0.26458333,0,0,0.26458333,-320.97738,-122.16182)"
       inkscape:export-xdpi="10.875001"
       inkscape:export-ydpi="10.875001">
      <g
         id="g546">
        <g
           id="g544">
          <path
             d="m 511.836,260.043 -41.271,0.225 2.578,-2.621 C 524.039,206.7 524.025,123.844 473.097,72.917 422.155,21.974 339.264,21.973 288.321,72.917 L 255.96,105.28 223.598,72.918 C 172.656,21.975 89.765,21.975 38.822,72.918 -12.123,123.86 -12.122,206.75 38.788,257.66 l 9.474,9.532 H 0 v 29.995 H 78.068 L 257.047,477.29 440.894,290.425 512,290.038 Z M 256.941,434.63 120.356,297.188 h 65.163 l 28.181,-67.758 42.881,135.228 62.218,-95.498 16.453,21.841 63.337,-0.346 z M 428.259,260.499 350.147,260.926 317.016,216.948 266.025,295.214 217.5,142.185 165.507,267.193 H 90.547 L 60.03,236.483 C 41.018,217.47 30.548,192.192 30.548,165.305 c 0,-26.889 10.47,-52.167 29.483,-71.179 19.013,-19.012 44.291,-29.482 71.178,-29.482 26.888,0 52.166,10.47 71.179,29.482 l 53.571,53.571 53.571,-53.571 c 19.013,-19.013 44.291,-29.482 71.178,-29.482 26.889,0 52.167,10.47 71.179,29.482 19.012,19.012 29.482,44.291 29.482,71.179 0,26.888 -10.47,52.166 -29.482,71.178 z"
             id="path542" />
        </g>
      </g>
      <g
         id="g548" />
      <g
         id="g550" />
      <g
         id="g552" />
      <g
         id="g554" />
      <g
         id="g556" />
      <g
         id="g558" />
      <g
         id="g560" />
      <g
         id="g562" />
      <g
         id="g564" />
      <g
         id="g566" />
      <g
         id="g568" />
      <g
         id="g570" />
      <g
         id="g572" />
      <g
         id="g574" />
      <g
         id="g576" />
    </g>
    <path
       d="m 108.01716,-99.31234 c 1.40835,-0.38723 2.23655,-1.84381 1.84794,-3.25354 -3.50021,-12.71375 -2.69543,-32.12613 2.4598,-59.34645 3.38721,-17.88552 8.84422,-33.36085 16.22084,-45.99743 5.3013,-9.08125 11.45147,-16.50748 18.28101,-22.07474 4.34633,-3.5443 10.50201,-3.60218 14.9696,-0.13918 3.34724,2.59346 5.06703,6.67382 4.5985,10.91266 -0.96187,8.72709 -0.5581,21.44911 6.51948,33.43526 -0.95911,1.18235 -2.03122,2.45704 -3.22736,3.82267 -0.003,0.003 -0.006,0.007 -0.008,0.01 -2.58657,2.9738 -5.33299,5.7905 -8.11938,8.57689 -0.68212,0.68212 -8.76568,8.45286 -8.96549,8.25305 -1.92787,-1.9513 -4.17958,-4.43452 -6.40097,-7.35044 0.0317,-2.51354 0.27698,-10.02245 2.00641,-15.0192 0.47818,-1.38079 -0.25493,-2.88836 -1.63572,-3.36516 -1.38079,-0.47818 -2.88699,0.25356 -3.36516,1.63435 -0.98943,2.85666 -1.55443,6.29073 -1.87689,9.36788 -1.83967,-3.28662 -3.41477,-6.88053 -4.43313,-10.70044 -0.37759,-1.41111 -1.82728,-2.25171 -3.23839,-1.87413 -1.41248,0.3762 -2.25171,1.8259 -1.8755,3.23838 1.3422,5.03534 3.53604,9.68896 6.04406,13.82031 -3.45611,-0.33899 -7.79141,-0.2508 -11.75464,1.32705 -1.35736,0.54019 -2.0202,2.07946 -1.47863,3.43682 0.52917,1.33256 2.10564,2.01055 3.43682,1.48001 5.24618,-2.0891 11.7822,-0.70969 13.96225,-0.14745 2.26824,2.97931 4.55716,5.53143 6.54842,7.57092 -1.00459,0.82545 -1.98299,1.69223 -2.93246,2.60173 -3.8392,3.67936 -7.21539,8.04083 -10.10513,13.04999 -3.70416,-3.0992 -8.38396,-7.87409 -10.18505,-13.3628 -0.45613,-1.38768 -1.9513,-2.14422 -3.34036,-1.68809 -1.38768,0.45613 -2.14422,1.95129 -1.68809,3.33897 0.75792,2.30821 1.88791,4.47999 3.23425,6.49606 -2.28479,0.32384 -5.03948,0.97013 -7.74043,2.24206 -1.32291,0.62149 -1.89066,2.19797 -1.26779,3.5195 0.61185,1.30224 2.21864,1.88102 3.52088,1.26779 3.70967,-1.74459 7.67014,-2.01744 9.48777,-2.04224 1.78593,1.89893 3.6766,3.58013 5.46942,5.01742 -1.15204,2.40054 -2.21175,4.92096 -3.16535,7.57092 -1.29121,3.58565 -2.29305,7.09551 -3.07163,10.3959 -0.8723,-0.26183 -1.78869,-0.50712 -2.73816,-0.72347 -0.75241,-1.34083 -2.11115,-4.13548 -2.4157,-7.3091 -0.13918,-1.45382 -1.4304,-2.5218 -2.8856,-2.38124 -1.45521,0.13918 -2.52181,1.43178 -2.38262,2.8856 0.21359,2.23104 0.80339,4.28018 1.45796,5.97516 -1.81763,-0.0537 -3.65455,0.073 -5.44186,0.46854 -1.42765,0.31694 -2.3275,1.72943 -2.01193,3.1557 0.31695,1.42764 1.72943,2.3275 3.1557,2.01193 4.01146,-0.88884 8.54795,-0.0207 12.17907,1.11896 -0.61874,3.39823 -1.00321,6.43956 -1.2361,8.92002 -0.36518,3.86401 2.53559,7.50202 6.43405,7.8107 3.42717,0.27148 6.73721,-2.1828 7.45379,-5.55072 0.21222,-0.99632 0.48782,-2.18557 0.83509,-3.52777 2.81394,2.51491 5.9724,6.03166 7.27189,9.988 0.44786,1.36701 1.97472,2.13733 3.33897,1.68947 1.38906,-0.45613 2.14423,-1.9513 1.6881,-3.34036 -0.57051,-1.73632 -1.38768,-3.38032 -2.36058,-4.92234 1.78869,-0.30041 3.84748,-0.83922 5.87043,-1.79145 1.32292,-0.62149 1.88929,-2.19796 1.26779,-3.52088 -0.62287,-1.32291 -2.19934,-1.88928 -3.52088,-1.26779 -2.88147,1.35737 -5.96137,1.61506 -7.50477,1.65089 -1.44832,-1.52411 -2.97105,-2.87734 -4.41936,-4.0404 2.29029,-6.97975 6.13363,-15.85153 12.38302,-23.8276 0.8282,1.26366 1.77491,2.58381 2.84426,3.92051 -0.36655,2.99171 -1.0225,10.90714 1.25953,17.23646 0.48782,1.35323 2.03673,2.07808 3.38721,1.59163 1.3739,-0.49609 2.08772,-2.01193 1.59163,-3.38583 -1.15066,-3.19291 -1.37804,-7.04038 -1.31051,-10.13958 1.94027,1.79144 4.13272,3.5071 6.60905,5.03671 1.20578,0.74414 2.87596,0.37896 3.64215,-0.86265 0.76756,-1.24298 0.38171,-2.8732 -0.86265,-3.64076 -6.50846,-4.01835 -10.85892,-9.53601 -13.55297,-13.94985 1.12447,-1.18925 2.30545,-2.34679 3.55946,-3.45611 6.73032,-5.95449 12.31136,-9.93012 16.79549,-13.12578 0.4203,-0.29903 0.82958,-0.59118 1.23334,-0.88057 1.38906,6.70001 3.10885,17.83866 3.10885,37.78847 0,18.76884 -2.48873,29.62224 -8.06702,35.19226 -6.16395,6.15568 -16.71005,6.13914 -31.30482,6.11847 -10.75969,0 -22.13261,-1.41386 -28.41921,-11.27232 -0.78548,-1.23197 -2.42121,-1.59439 -3.65317,-0.80891 -1.23196,0.78548 -1.59439,2.42259 -0.80891,3.65455 5.88559,9.2287 15.76059,13.71558 30.18861,13.71558 1.74735,0 3.4947,0.006 5.24205,0.006 14.55067,0 25.19874,-0.38309 32.49544,-7.66738 6.65177,-6.64351 9.62006,-18.65171 9.62006,-38.93776 0,-23.01869 -2.25447,-34.67411 -3.73861,-41.25147 2.87458,-2.28202 5.09597,-4.48963 6.63248,-7.24433 0.60358,-1.08038 1.71979,-1.75148 2.91317,-1.75148 h 0.37207 c 1.19475,0 2.31096,0.6711 2.91316,1.75148 1.53651,2.7547 3.7579,4.96231 6.63249,7.24433 -1.48277,6.57736 -3.73724,18.23278 -3.73724,41.25147 0,20.28605 2.96691,32.29425 9.62007,38.93776 7.29532,7.28567 17.94201,7.66738 32.49405,7.66738 1.74735,0 3.4947,-0.006 5.24205,-0.006 12.87084,0 22.05545,-3.53328 28.07608,-10.80241 5.19519,-6.27006 8.05186,-15.2769 8.73261,-27.5359 0.6835,-12.259 -0.79789,-27.78945 -4.52685,-47.47605 -3.56635,-18.8336 -9.38442,-35.12611 -17.2902,-48.42553 -0.7469,-1.25676 -2.3716,-1.6688 -3.62699,-0.9219 -1.25677,0.74689 -1.6688,2.37022 -0.92328,3.62699 7.59159,12.76749 13.18917,28.48122 16.64115,46.70436 7.039,37.16697 6.05922,59.61791 -3.08129,70.65322 -6.56496,7.9237 -17.1083,8.87316 -26.69253,8.88832 -14.59476,0.0207 -25.14224,0.0372 -31.30619,-6.11847 -5.57829,-5.57002 -8.06564,-16.42342 -8.06564,-35.19226 0,-19.94981 1.71979,-31.08846 3.10885,-37.78847 0.40376,0.28939 0.81304,0.58154 1.23334,0.88057 5.78775,4.12446 11.468,8.4129 16.79411,13.12578 1.25401,1.10932 2.43637,2.26686 3.55946,3.45611 -2.69268,4.41247 -7.04313,9.9315 -13.55297,13.94985 -1.24299,0.76756 -1.62884,2.39778 -0.86127,3.64076 0.75654,1.22646 2.41569,1.6192 3.64077,0.86265 2.47908,-1.52961 4.67154,-3.24802 6.61456,-5.04085 0.0675,3.09369 -0.15985,6.93841 -1.31464,10.14234 -0.60909,1.68947 0.69591,3.5443 2.48873,3.5443 1.08451,0 2.10013,-0.6711 2.49011,-1.74872 2.28064,-6.32932 1.62607,-14.24475 1.25951,-17.23646 1.06936,-1.33807 2.01607,-2.65823 2.84289,-3.92051 6.25077,7.97607 10.0941,16.84785 12.3844,23.8276 -1.44832,1.16306 -2.97105,2.51629 -4.41936,4.0404 -1.5434,-0.0358 -4.62193,-0.29352 -7.50478,-1.65089 -1.32291,-0.62149 -2.898,-0.0537 -3.52088,1.26779 -0.62148,1.32292 -0.0551,2.89939 1.2678,3.52088 2.02295,0.95223 4.08311,1.49104 5.87042,1.79145 -0.97289,1.54202 -1.79006,3.18602 -2.36057,4.92234 -0.45613,1.38906 0.29903,2.88423 1.68809,3.34036 1.34359,0.44097 2.88423,-0.30317 3.33898,-1.68947 1.29949,-3.95634 4.45794,-7.47309 7.27189,-9.988 0.34727,1.3422 0.62287,2.53145 0.83509,3.52777 0,0.004 0.001,0.007 0.003,0.011 0.71658,3.34725 4.03764,5.80842 7.45103,5.5397 4.0845,-0.32246 6.7882,-4.19887 6.40373,-8.11111 -0.23564,-2.42534 -0.61185,-5.35504 -1.20578,-8.61961 3.62974,-1.13963 8.16761,-2.0078 12.17907,-1.11896 1.42627,0.31557 2.83875,-0.58567 3.15432,-2.01193 0.31695,-1.42627 -0.58428,-2.83876 -2.01055,-3.1557 -1.78731,-0.3955 -3.62423,-0.52228 -5.44186,-0.46854 0.65457,-1.69498 1.24437,-3.74412 1.45796,-5.97516 0.13918,-1.45382 -0.92742,-2.74642 -2.38262,-2.8856 -1.45658,-0.14056 -2.74642,0.92742 -2.88561,2.38124 -0.30454,3.18051 -1.66053,5.96689 -2.41569,7.3091 -0.94947,0.21635 -1.86586,0.46164 -2.73816,0.72209 -0.77859,-3.29901 -1.78042,-6.81025 -3.07164,-10.39452 -0.24115,-0.66972 -3.25767,-7.49788 -3.16534,-7.57092 1.7942,-1.43867 3.68486,-3.12125 5.47217,-5.02018 1.80661,0.0179 5.74228,0.28525 9.48502,2.045 1.27881,0.6022 2.89938,0.0537 3.52088,-1.26779 0.62149,-1.32153 0.0551,-2.89801 -1.2678,-3.52088 -2.70094,-1.27055 -5.45563,-1.91684 -7.74042,-2.24068 1.34634,-2.01607 2.47633,-4.18785 3.23287,-6.49606 0.45613,-1.38768 -0.29903,-2.88284 -1.68809,-3.33897 -1.38768,-0.45613 -2.88285,0.29903 -3.33898,1.68809 -1.80247,5.48871 -6.4809,10.2636 -10.18643,13.36418 -3.60356,-6.24939 -7.96504,-11.4873 -13.03759,-15.6531 1.99264,-2.03949 4.28293,-4.59299 6.55118,-7.57368 2.17729,-0.56775 8.683,-1.95129 13.96087,0.15021 1.33945,0.5333 2.90352,-0.13918 3.43682,-1.48001 0.54019,-1.35736 -0.12127,-2.89663 -1.48001,-3.43682 -3.96323,-1.57785 -8.29715,-1.66604 -11.75326,-1.32705 2.50802,-4.12997 4.70048,-8.78497 6.04406,-13.82031 0.3762,-1.41111 -0.46302,-2.86218 -1.87551,-3.23838 -1.4111,-0.3762 -2.86217,0.46302 -3.23838,1.8755 -1.01836,3.81854 -2.59346,7.41383 -4.43314,10.69907 -0.32246,-3.07715 -0.88745,-6.51122 -1.87688,-9.36788 -0.47818,-1.38079 -1.98437,-2.11253 -3.36654,-1.63435 -1.38079,0.47818 -2.11253,1.98437 -1.63435,3.36654 1.72944,4.99675 1.97335,12.50428 2.00642,15.01782 -2.22139,2.91592 -4.4731,5.39914 -6.40235,7.35182 -0.0592,-0.0524 -0.12127,-0.10473 -0.18052,-0.15572 -5.11388,-4.42074 -9.73719,-9.23835 -14.50656,-14.0091 -2.20073,-2.39089 -4.06796,-4.57232 -5.63203,-6.49744 7.07758,-11.9889 7.48135,-24.70954 6.5181,-33.43664 -0.46715,-4.23883 1.25264,-8.31919 4.59988,-10.91266 4.46759,-3.463 10.62189,-3.40512 14.96959,0.13918 4.39179,3.58014 8.56448,8.00777 12.40369,13.16024 0.87229,1.17133 2.53007,1.41386 3.7014,0.54019 1.17271,-0.8723 1.41524,-2.53007 0.54157,-3.70278 -4.09828,-5.49974 -8.57414,-10.24431 -13.30217,-14.10006 -6.26731,-5.10837 -15.13082,-5.19932 -21.55659,-0.22048 -4.81486,3.73172 -7.28843,9.5925 -6.61733,15.67652 0.82269,7.45655 0.55811,18.10463 -4.77764,28.2952 -0.2012,-0.27561 -0.3955,-0.54433 -0.57464,-0.79651 -1.48001,-2.08083 -2.26274,-4.52271 -2.26274,-7.06243 v -48.55953 c 0,-4.01146 -3.26456,-7.27602 -7.27603,-7.27602 h -12.42181 c -4.01146,0 -7.27602,3.26456 -7.27602,7.27602 v 48.5592 c 0,2.53972 -0.78273,4.9816 -2.26274,7.06243 -0.17914,0.25218 -0.37345,0.5209 -0.57464,0.7965 -5.33437,-10.19057 -5.60033,-20.83864 -4.77765,-28.29519 0.67111,-6.08402 -1.80247,-11.94481 -6.61732,-15.67652 -6.42578,-4.97884 -15.2893,-4.88789 -21.55522,0.22048 -7.32288,5.96965 -13.88508,13.87819 -19.50746,23.50928 -7.68255,13.15885 -13.35178,29.20056 -16.85061,47.68 -5.31095,28.03199 -6.08265,48.22709 -2.36333,61.73735 0.38723,1.40835 1.84381,2.23655 3.25354,1.84794 z m 73.30319,-88.75234 c 2.12217,-2.98069 3.24251,-6.48365 3.24251,-10.12993 v -48.5592 c 0,-1.09416 0.89021,-1.98299 1.98437,-1.98299 h 12.42161 c 1.09416,0 1.98437,0.88883 1.98437,1.98299 v 48.5592 c 0,3.64628 1.12034,7.14924 3.24114,10.12993 4.47586,6.29073 9.65313,12.08261 15.10739,17.5355 5.51766,5.51765 11.80424,10.19332 17.36875,15.66412 14.61406,14.37153 18.24793,36.72325 19.14228,46.14488 0.001,0.0165 0.003,0.0344 0.004,0.051 0.0909,0.96049 -0.58704,1.95819 -1.58474,2.03812 -0.0179,0.001 -0.0358,-10e-4 -0.0537,0 -0.853,0.0413 -1.62608,-0.53881 -1.80385,-1.37528 -0.56224,-2.64445 -1.16444,-5.37158 -2.07532,-7.92095 -3.7331,-10.3077 -7.86858,-20.02836 -14.93376,-28.57493 -6.72067,-8.12903 -15.38024,-14.32191 -23.9089,-20.39905 -3.87365,-2.76158 -8.59342,-5.57966 -10.9788,-9.85433 -3.2687,-5.86216 -12.16667,-5.8718 -15.44088,-0.001 -2.38952,4.28431 -7.08999,7.0831 -10.97881,9.85571 -4.58472,3.26594 -10.28979,7.33252 -17.22957,13.47167 -9.72617,8.60445 -16.37932,20.24196 -20.603,32.41 -1.24987,3.60081 -2.29029,7.2843 -3.08404,11.01326 -0.1819,0.85438 -0.97978,1.44556 -1.85897,1.37528 -1.00045,-0.0799 -1.67569,-1.08038 -1.58474,-2.03812 0.34864,-3.69864 1.1231,-9.41611 2.82497,-15.86669 2.10013,-7.95815 5.24205,-15.73027 9.88189,-22.55981 2.61275,-3.84609 5.75054,-7.4469 9.51809,-10.53646 4.94576,-4.05417 9.71101,-8.33297 14.24061,-12.84742 5.47769,-5.45839 10.67012,-11.27921 15.15701,-17.5851 z m 0,0"
       id="path615"
       style="stroke-width:0.352777"
       inkscape:export-xdpi="7.171885"
       inkscape:export-ydpi="7.171885" />
    <path
       d="m 436.50641,78.492244 c 0,5.57216 -4.53321,10.10537 -10.10537,10.10537 -5.57216,0 -10.10538,-4.53321 -10.10538,-10.10537 0,-4.00801 2.34527,-7.47798 5.73548,-9.110683 V 14.582564 c 0,-2.413547 1.95635,-4.369893 4.3699,-4.369893 2.41354,0 4.36989,1.956346 4.36989,4.369893 v 54.798997 c 3.39022,1.632703 5.73548,5.102673 5.73548,9.110683 z m -75.38064,-96.410756 c 0,6.626396 -5.39081,12.0172055 -12.01721,12.0172055 -6.62639,0 -12.0172,-5.3908095 -12.0172,-12.0172055 0,-6.626398 5.39081,-12.017208 12.0172,-12.017208 6.6264,0 12.01721,5.39081 12.01721,12.017208 z m -8.73979,0 c 0,-1.807223 -1.47019,-3.27742 -3.27742,-3.27742 -1.80722,0 -3.27742,1.470197 -3.27742,3.27742 0,1.807224 1.4702,3.27742 3.27742,3.27742 1.80723,0 3.27742,-1.470196 3.27742,-3.27742 z m 41.02155,35.655319 c -1.8613,-1.536018 -4.61543,-1.271912 -6.15172,0.589662 -5.92093,7.177275 -17.66338,2.996654 -17.66338,-6.338529 V -0.84861852 c 0,-9.32726348 11.73644,-13.52044848 17.66311,-6.33907498 1.53629,1.861301 4.29069,2.12486 6.15172,0.588569 1.8613,-1.53629 2.12486,-4.2904155 0.58857,-6.1517165 -3.56993,-4.325647 -8.83101,-6.80638 -14.43458,-6.80638 -10.31595,0 -18.7086,8.392651 -18.7086,18.70860248 V 11.98794 c 0,10.31595 8.39265,18.708602 18.7086,18.708602 5.60466,0 10.86656,-2.481553 14.43594,-6.808019 1.53602,-1.861574 1.27219,-4.615699 -0.58966,-6.151716 z M 465.73007,-10.2712 c 0,2.4135465 -1.95635,4.3698935 -4.36989,4.3698935 H 444.69996 V 12.670736 h 11.19785 c 2.41355,0 4.36989,1.956346 4.36989,4.369892 0,2.413546 -1.95634,4.369893 -4.36989,4.369893 h -11.19785 v 18.572043 h 5.73548 c 2.41355,0 4.3699,1.956346 4.3699,4.369892 0,2.413546 -1.95635,4.369893 -4.3699,4.369893 h -5.73548 v 9.862301 c 5.58035,5.11332 8.73979,12.252904 8.73979,19.907594 0,14.90925 -12.12946,27.038706 -27.03871,27.038706 -14.90926,0 -27.03871,-12.129456 -27.03871,-27.038706 0,-7.65442 3.15943,-14.794274 8.73978,-19.907594 v -70.221441 c 0,-10.090082 8.20884,-18.298929 18.29893,-18.298929 9.0667,0 16.61023,6.629404 18.0482,15.294628 h 16.91094 c 2.41354,0 4.36989,1.956346 4.36989,4.369892 z m -21.03011,88.763444 c 0,-5.68059 -2.57168,-10.942487 -7.05601,-14.437035 -1.0627,-0.827822 -1.68377,-2.099734 -1.68377,-3.446753 v -72.245247 c 0,-5.27091 -4.28823,-9.559141 -9.55914,-9.559141 -5.27091,0 -9.55914,4.288231 -9.55914,9.559141 v 72.245247 c 0,1.347293 -0.62107,2.618931 -1.68378,3.446753 -4.48433,3.494548 -7.05601,8.756445 -7.05601,14.437035 0,10.09008 8.20884,18.29892 18.29893,18.29892 10.09008,0 18.29892,-8.20884 18.29892,-18.29892 z"
       id="path635"
       style="stroke-width:0.273118"
       inkscape:export-xdpi="9.2802563"
       inkscape:export-ydpi="9.2802563" />
    <g
       id="g681"
       transform="matrix(0.3527771,0,0,0.3527771,348.95017,122.86763)"
       inkscape:export-xdpi="7.0823021"
       inkscape:export-ydpi="7.0823021">
      <path
         d="m 335.83203,313.67969 c 0.0117,0.0234 0.0234,0.0469 0.0312,0.0664 1.69922,3.80469 5.30469,6.03516 9.12891,6.03516 1.36718,0 2.76172,-0.28516 4.10547,-0.88281 5.11718,-2.27344 7.32812,-8.10547 5.03906,-13.27735 -2.28516,-5.17187 -8.08985,-7.45703 -13.21485,-5.20312 -5.125,2.25781 -7.35937,8.08203 -5.08984,13.26172 z m 0,0"
         id="path661" />
      <path
         d="m 363.42187,342.82422 c -0.85937,-5.45313 -5.98046,-9.17969 -11.4375,-8.3125 -5.45312,0.85937 -9.17578,5.98047 -8.3125,11.4375 2.24219,14.20703 2.85938,28.6875 1.82813,43.03515 -2.39063,33.26172 -19.20313,63.61719 -46.12891,83.28907 l -6.76172,4.9375 C 279.36328,486.88672 263.69531,492 247.29297,492 c -5.9375,0 -11.87891,-0.69141 -17.65235,-2.05469 l -26.5,-6.25781 C 151.92187,471.59375 105.20312,443.17187 71.589844,403.66016 56.648438,386.09375 49.910156,373.31641 44.734375,360.15625 c 0.414063,-1.33594 0.5625,-2.77734 0.367187,-4.25781 -0.05469,-0.42969 -4.976562,-43.6211 55.933598,-71.34766 41.77343,-19.01562 61.3164,-51.53515 68.11718,-65.55469 45.79688,6.32032 61.5586,19.21094 62.73047,20.22266 2.41797,2.5625 5.75391,3.39063 9.20703,2.60938 0.83203,-0.1875 1.65625,-0.36719 2.47657,-0.53907 32.04296,-6.72656 65.09375,10.33985 78.60156,40.5625 2.2539,5.04297 8.16797,7.30469 13.21094,5.05078 5.04296,-2.2539 7.30078,-8.16796 5.05078,-13.21093 -7.65235,-17.11328 -20.51953,-31.52344 -36.53907,-41.09766 0.008,-0.0352 0.0234,-0.0664 0.0352,-0.10156 2.01563,-6.44141 3.03516,-13.16016 3.03516,-19.96485 0,-1.36328 -0.0547,-2.71484 -0.13282,-4.05859 h 6.9375 c 5.51954,0 10,-4.47656 10,-10 0,-5.52344 -4.48046,-10 -10,-10 h -11.30468 c -2.57032,-6.63281 -6.16016,-12.76172 -10.59375,-18.17969 l 4.52734,-4.52734 c 3.90625,-3.90625 3.90625,-10.23828 0,-14.14453 -3.90625,-3.90235 -10.23437,-3.90235 -14.14062,0 l -5.23438,5.23437 C 268.91016,151.46875 259.5625,147.80859 249.5,146.39453 262.75,135.79688 280.15625,130.77734 301.36719,131.5 c 2.70703,0.10156 5.33984,-0.92187 7.29297,-2.80469 1.94921,-1.88281 3.04687,-4.47656 3.04687,-7.1875 V 83.414062 c 0,-5.203124 -3.98828,-9.535156 -9.17578,-9.964843 -1.62109,-0.132813 -20.34766,-1.558594 -44.69531,1.371093 C 246.94922,53.753906 231.625,38.105469 214,29.417969 l 7.07812,-10.566407 C 224.15234,14.261719 222.92187,8.050781 218.33203,4.980469 213.74609,1.90625 207.53516,3.132812 204.46094,7.722656 l -10.13282,15.128906 c -4.32031,-0.796874 -8.72265,-1.222656 -13.17968,-1.222656 -2.57032,0 -5.12891,0.144532 -7.66407,0.414063 V 10 c 0,-5.523438 -4.47656,-10 -10,-10 -5.52343,0 -10,4.476562 -10,10 v 17.101562 c -9.38281,3.820313 -18.26953,9.589844 -26.38671,17.230469 -6.07422,5.714844 -11.53907,12.324219 -16.33204,19.65625 C 107.01562,56.589844 99.335938,51.5 90.488281,51.5 H 63.34375 C 50.8125,51.5 40.617188,61.695312 40.617188,74.226562 V 176.44922 c -5.03125,3.91016 -9.882813,8.49219 -14.523438,13.78516 -21.921875,25.0039 -26.285156,57.76953 -26.0859375,80.85156 0.2265625,26.10937 6.5390625,52.72656 16.5156255,69.79297 1.507812,4.03906 2.863281,7.93359 4.179687,11.71093 6.722656,19.27344 13.070313,37.48047 35.652344,64.02735 36.355469,42.73828 86.851561,73.46875 142.191401,86.53515 l 26.4961,6.25782 c 7.28125,1.71875 14.76562,2.58984 22.25,2.58984 20.67187,0 40.42187,-6.44531 57.10937,-18.63672 l 6.76172,-4.9375 c 31.6875,-23.14844 51.47266,-58.86719 54.28516,-98.00781 1.14062,-15.86719 0.45703,-31.87891 -2.02735,-47.59375 z M 241.39062,221.33203 c -4.03125,-2.80469 -10.90234,-6.80078 -21.64062,-10.80859 0.82812,-9.625 3.62109,-27.76172 13.01172,-44.20703 2.43359,-0.38282 4.91797,-0.58594 7.39844,-0.58594 25.80468,0 46.80078,20.99609 46.80078,46.80078 0,3.97266 -0.50391,7.89453 -1.48047,11.69531 -14.19531,-4.60156 -29.39844,-5.63672 -44.08985,-2.89453 z M 291.70703,93.054688 v 18.500002 c -24.77344,1.07422 -45.21094,9.34765 -60.85937,24.65234 -21.97657,21.50391 -28.60547,51.375 -30.59375,68.34766 -9.56641,-2.38672 -20.92578,-4.53906 -34.36719,-6.14453 -3.03906,-2.81641 -6.06641,-5.47266 -9.08203,-7.98047 0.0156,-0.24219 0.0352,-0.48047 0.0352,-0.72656 0,-26.85938 8.67969,-48.48438 25.79297,-64.26954 32.54688,-30.019528 87.41797,-32.58984 109.07422,-32.378902 z M 181.14844,41.628906 c 5.01172,0 9.94922,0.738282 14.7539,2.140625 0.004,0 0.0117,0.0039 0.0156,0.0039 15.9375,4.65625 30.375,16.753906 40.98047,34.527343 -23.2461,5.011719 -48.39844,14.539063 -67.76563,32.374996 -18.4414,16.98047 -29.05078,39.04297 -31.65234,65.71094 -8.18359,-5.07813 -16.28125,-8.98047 -24.26563,-11.6875 V 106.875 c 0.17188,-0.40234 0.33204,-0.8125 0.45704,-1.24219 11.02734,-38.281248 38.14453,-64.003904 67.47656,-64.003904 z M 60.617188,74.226562 C 60.617188,72.722656 61.839844,71.5 63.34375,71.5 h 27.144531 c 1.503907,0 2.726563,1.222656 2.726563,2.726562 v 86.167968 c -3.351563,-0.29297 -6.675782,-0.37109 -9.980469,-0.22265 -7.824219,0.34765 -15.371094,1.94921 -22.617187,4.76953 z M 41.132812,203.42188 c 12.925782,-14.7461 27.390626,-22.57422 42.992188,-23.26954 19.89453,-0.89062 42.78516,9.92188 66.39453,31.3125 -6.10547,11.98047 -23.09375,39.09766 -57.76953,54.88282 -38.269531,17.41796 -54.605469,41.05078 -61.574219,57.80468 -0.117187,0.28516 -0.226562,0.5625 -0.34375,0.84375 -12.640625,-28.0039 -19.4375,-87.65625 10.300781,-121.57421 z m 0,0"
         id="path663" />
      <path
         d="m 126.82031,402.16797 c -4.25,-3.52735 -10.55468,-2.9375 -14.08203,1.3125 -3.52344,4.25 -2.9375,10.55469 1.3125,14.07812 27.05078,22.44532 59.44922,38.57813 93.6875,46.66407 0.77344,0.18359 1.54688,0.26953 2.30859,0.26953 4.53125,0 8.63672,-3.10156 9.72266,-7.70313 1.26953,-5.375 -2.05859,-10.76172 -7.43359,-12.03125 -31.25391,-7.3789 -60.82422,-22.10937 -85.51563,-42.58984 z m 0,0"
         id="path665" />
      <path
         d="m 87.867188,376.63672 c -4.175782,3.61719 -4.648438,9.90234 -1.035157,14.07422 1.980469,2.375 4.824219,3.59765 7.691407,3.59765 2.257812,0 4.527343,-0.75781 6.394532,-2.3164 4.24219,-3.53516 4.81641,-9.83985 1.28125,-14.08203 l -0.20313,-0.23828 c -3.617184,-4.17579 -9.957028,-4.65235 -14.128902,-1.03516 z m 0,0"
         id="path667" />
    </g>
    <g
       id="g695"
       inkscape:export-xdpi="8.9783554"
       inkscape:export-ydpi="8.9783554">
      <text
         xml:space="preserve"
         style="font-style:normal;font-weight:normal;font-size:185.992px;line-height:1.25;font-family:sans-serif;fill:#000000;fill-opacity:1;stroke:none;stroke-width:4.64981"
         x="-133.59329"
         y="-13.445054"
         id="text685"><tspan
           sodipodi:role="line"
           id="tspan683"
           x="-133.59329"
           y="-13.445054"
           style="stroke-width:4.64981">O</tspan></text>
      <text
         xml:space="preserve"
         style="font-style:normal;font-weight:normal;font-size:93.0854px;line-height:1.25;font-family:sans-serif;fill:#000000;fill-opacity:1;stroke:none;stroke-width:2.32714;"
         x="4.8535142"
         y="-21.166668"
         id="text689"><tspan
           sodipodi:role="line"
           id="tspan687"
           x="4.8535142"
           y="-21.166668"
           style="font-style:normal;font-variant:normal;font-weight:bold;font-stretch:normal;font-size:93.0854px;font-family:sans-serif;-inkscape-font-specification:'sans-serif, Bold';font-variant-ligatures:normal;font-variant-caps:normal;font-variant-numeric:normal;font-variant-east-asian:normal;stroke-width:2.32714">2</tspan></text>
    </g>
    <g
       id="g211"
       transform="matrix(0.26458333,0,0,0.26458333,366.17126,-412.92533)"
       inkscape:export-xdpi="10"
       inkscape:export-ydpi="10">
      <g
         id="g147">
	<g
   id="g145">
		<g
   id="g143">
			<path
   d="M 384.152,48 H 288 V 40 C 287.974,17.92 270.08,0.026 248,0 h -16 c -22.08,0.026 -39.974,17.92 -40,40 v 8 H 95.848 C 82.683,48.013 72.013,58.683 72,71.848 V 456.152 C 72.013,469.317 82.683,479.987 95.848,480 H 384.152 C 397.317,479.987 407.987,469.317 408,456.152 V 71.848 C 407.987,58.683 397.317,48.013 384.152,48 Z M 208,40 c 0,-13.255 10.745,-24 24,-24 h 16 c 13.255,0 24,10.745 24,24 v 8 h -64 z m 94.552,24 C 299.171,73.563 290.143,79.968 280,80 H 200 C 189.866,79.958 180.85,73.555 177.472,64 Z M 392,456.152 c -0.004,4.333 -3.516,7.844 -7.848,7.848 H 95.848 C 91.515,463.996 88.004,460.484 88,456.152 V 71.848 C 88.004,67.515 91.516,64.004 95.848,64 H 160.8 c 3.827,18.611 20.199,31.976 39.2,32 h 80 c 19.001,-0.024 35.373,-13.389 39.2,-32 h 64.96 c 4.332,0.004 7.844,3.516 7.848,7.848 z"
   id="path129" />

			<path
   d="m 271.2,140.424 c -1.971,-3.954 -6.775,-5.562 -10.729,-3.591 -1.905,0.949 -3.352,2.619 -4.023,4.638 l -15.816,47.464 -8.904,-31.136 c -1.218,-4.247 -5.649,-6.702 -9.896,-5.484 -1.944,0.558 -3.605,1.831 -4.648,3.564 l -11.808,19.68 -5.384,-48.44 c -0.483,-4.392 -4.435,-7.561 -8.826,-7.078 -3.108,0.342 -5.732,2.463 -6.718,5.43 l -25.344,76 -15.712,-36.656 c -1.276,-2.942 -4.185,-4.837 -7.392,-4.816 h -32 v 16 h 26.728 l 21.92,51.152 C 153.909,230.093 156.8,232 160,232 h 0.336 c 3.318,-0.139 6.206,-2.313 7.256,-5.464 l 20.48,-61.44 4,35.792 c 0.487,4.391 4.441,7.557 8.833,7.07 2.48,-0.275 4.69,-1.691 5.975,-3.83 l 14.52,-24.192 10.936,38.272 c 0.964,3.373 4.013,5.725 7.52,5.8 3.495,0.039 6.623,-2.167 7.76,-5.472 l 17.888,-53.68 7.36,14.728 c 1.354,2.702 4.114,4.41 7.136,4.416 h 96 v -16 h -91.056 z"
   id="path131" />

			<rect
   x="104"
   y="280"
   width="272"
   height="16"
   id="rect133" />

			<rect
   x="104"
   y="312"
   width="272"
   height="16"
   id="rect135" />

			<rect
   x="104"
   y="344"
   width="272"
   height="16"
   id="rect137" />

			<rect
   x="104"
   y="376"
   width="272"
   height="16"
   id="rect139" />

			<rect
   x="104"
   y="408"
   width="272"
   height="16"
   id="rect141" />

		</g>

	</g>

</g>
      <g
         id="g149">
</g>
      <g
         id="g151">
</g>
      <g
         id="g153">
</g>
      <g
         id="g155">
</g>
      <g
         id="g157">
</g>
      <g
         id="g159">
</g>
      <g
         id="g161">
</g>
      <g
         id="g163">
</g>
      <g
         id="g165">
</g>
      <g
         id="g167">
</g>
      <g
         id="g169">
</g>
      <g
         id="g171">
</g>
      <g
         id="g173">
</g>
      <g
         id="g175">
</g>
      <g
         id="g177">
</g>
    </g>
  </g>
</svg>
